<svg width="164" height="26" viewBox="0 0 164 26" fill="none" xmlns="http://www.w3.org/2000/svg">
<path d="M7.89892 25.125H0.288933V0.464779H8.23607C10.6282 0.464779 12.6752 0.958465 14.377 1.94584C16.0789 2.92518 17.3833 4.33399 18.2904 6.17227C19.1975 8.00252 19.6511 10.194 19.6511 12.7467C19.6511 15.3155 19.1935 17.5271 18.2784 19.3814C17.3632 21.2277 16.0307 22.6485 14.2807 23.6439C12.5307 24.6313 10.4035 25.125 7.89892 25.125ZM3.27513 22.476H7.70626C9.74523 22.476 11.435 22.0826 12.7756 21.2959C14.1162 20.5092 15.1156 19.3894 15.7738 17.9364C16.4321 16.4835 16.7612 14.7536 16.7612 12.7467C16.7612 10.7559 16.4361 9.04207 15.7859 7.60516C15.1356 6.16023 14.1643 5.05245 12.8719 4.28181C11.5795 3.50316 9.97 3.11383 8.04342 3.11383H3.27513V22.476ZM37.2061 25.125V0.464779H52.0889V3.11383H40.1923V11.4463H51.3183V14.0953H40.1923V22.476H52.2815V25.125H37.2061ZM89.8609 8.1711H86.8747C86.6981 7.31216 86.3891 6.55759 85.9476 5.90737C85.5141 5.25715 84.9843 4.71128 84.3581 4.26978C83.74 3.82024 83.0537 3.48309 82.2991 3.25832C81.5445 3.03355 80.7578 2.92117 79.939 2.92117C78.4459 2.92117 77.0933 3.29846 75.8812 4.05303C74.6771 4.80761 73.7178 5.91941 73.0033 7.38843C72.2969 8.85744 71.9437 10.6596 71.9437 12.7949C71.9437 14.9302 72.2969 16.7323 73.0033 18.2014C73.7178 19.6704 74.6771 20.7822 75.8812 21.5367C77.0933 22.2913 78.4459 22.6686 79.939 22.6686C80.7578 22.6686 81.5445 22.5562 82.2991 22.3315C83.0537 22.1067 83.74 21.7736 84.3581 21.332C84.9843 20.8825 85.5141 20.3326 85.9476 19.6824C86.3891 19.0242 86.6981 18.2696 86.8747 17.4187H89.8609C89.6362 18.679 89.2268 19.8068 88.6327 20.8022C88.0387 21.7976 87.3002 22.6445 86.4172 23.3429C85.5341 24.0333 84.5428 24.5591 83.443 24.9203C82.3513 25.2815 81.1833 25.4622 79.939 25.4622C77.8359 25.4622 75.9655 24.9484 74.3279 23.9209C72.6903 22.8934 71.4019 21.4324 70.4627 19.5379C69.5235 17.6434 69.0539 15.3958 69.0539 12.7949C69.0539 10.194 69.5235 7.94633 70.4627 6.05186C71.4019 4.15739 72.6903 2.6964 74.3279 1.66889C75.9655 0.641382 77.8359 0.127628 79.939 0.127628C81.1833 0.127628 82.3513 0.308245 83.443 0.669478C84.5428 1.03071 85.5341 1.56052 86.4172 2.25891C87.3002 2.94926 88.0387 3.79214 88.6327 4.78754C89.2268 5.77491 89.6362 6.90277 89.8609 8.1711ZM128.039 12.7949C128.039 15.3958 127.57 17.6434 126.631 19.5379C125.691 21.4324 124.403 22.8934 122.765 23.9209C121.128 24.9484 119.257 25.4622 117.154 25.4622C115.051 25.4622 113.181 24.9484 111.543 23.9209C109.905 22.8934 108.617 21.4324 107.678 19.5379C106.739 17.6434 106.269 15.3958 106.269 12.7949C106.269 10.194 106.739 7.94633 107.678 6.05186C108.617 4.15739 109.905 2.6964 111.543 1.66889C113.181 0.641382 115.051 0.127628 117.154 0.127628C119.257 0.127628 121.128 0.641382 122.765 1.66889C124.403 2.6964 125.691 4.15739 126.631 6.05186C127.57 7.94633 128.039 10.194 128.039 12.7949ZM125.149 12.7949C125.149 10.6596 124.792 8.85744 124.078 7.38843C123.371 5.91941 122.412 4.80761 121.2 4.05303C119.996 3.29846 118.647 2.92117 117.154 2.92117C115.661 2.92117 114.308 3.29846 113.096 4.05303C111.892 4.80761 110.933 5.91941 110.218 7.38843C109.512 8.85744 109.159 10.6596 109.159 12.7949C109.159 14.9302 109.512 16.7323 110.218 18.2014C110.933 19.6704 111.892 20.7822 113.096 21.5367C114.308 22.2913 115.661 22.6686 117.154 22.6686C118.647 22.6686 119.996 22.2913 121.2 21.5367C122.412 20.7822 123.371 19.6704 124.078 18.2014C124.792 16.7323 125.149 14.9302 125.149 12.7949ZM145.606 25.125V0.464779H153.939C155.865 0.464779 157.447 0.793903 158.683 1.45215C159.919 2.10237 160.834 2.99743 161.428 4.13732C162.022 5.27722 162.319 6.57364 162.319 8.0266C162.319 9.47957 162.022 10.768 161.428 11.8918C160.834 13.0156 159.923 13.8987 158.695 14.5409C157.467 15.175 155.898 15.4921 153.987 15.4921H147.244V12.7949H153.891C155.207 12.7949 156.267 12.6022 157.07 12.2169C157.88 11.8316 158.466 11.2857 158.828 10.5793C159.197 9.86488 159.381 9.01398 159.381 8.0266C159.381 7.03923 159.197 6.17629 158.828 5.43776C158.458 4.69924 157.868 4.1293 157.057 3.72792C156.247 3.31853 155.175 3.11383 153.843 3.11383H148.593V25.125H145.606ZM157.214 14.0472L163.283 25.125H159.815L153.843 14.0472H157.214Z" fill="white"/>
</svg>
