<svg width="167" height="44" viewBox="0 0 167 44" fill="none" xmlns="http://www.w3.org/2000/svg">
<path d="M35.3979 1.1439V42.6953H27.0405V24.6269H9.26638V42.6953H0.967872V1.1439H9.26638V17.9763H27.0405V1.1439H35.3979ZM62.4057 0.555356C66.2901 0.555356 69.8018 1.45779 72.9407 3.26267C76.1189 5.06755 78.6104 7.5983 80.4153 10.8549C82.2594 14.0723 83.1814 17.7213 83.1814 21.8019C83.1814 25.8825 82.2594 29.5511 80.4153 32.8077C78.6104 36.0644 76.1189 38.5951 72.9407 40.4C69.8018 42.2049 66.2901 43.1073 62.4057 43.1073C58.5213 43.1073 54.99 42.2049 51.8119 40.4C48.673 38.5951 46.1815 36.0644 44.3373 32.8077C42.5325 29.5511 41.63 25.8825 41.63 21.8019C41.63 17.7213 42.5325 14.0723 44.3373 10.8549C46.1815 7.5983 48.673 5.06755 51.8119 3.26267C54.99 1.45779 58.5213 0.555356 62.4057 0.555356ZM62.4057 8.20646C59.9731 8.20646 57.8347 8.75577 55.9906 9.8544C54.1465 10.953 52.6947 12.5421 51.6353 14.6216C50.6152 16.6619 50.1051 19.0553 50.1051 21.8019C50.1051 24.5484 50.6152 26.9615 51.6353 29.041C52.6947 31.0813 54.1465 32.6508 55.9906 33.7494C57.8347 34.848 59.9731 35.3973 62.4057 35.3973C64.8384 35.3973 66.9768 34.848 68.8209 33.7494C70.665 32.6508 72.0971 31.0813 73.1173 29.041C74.1767 26.9615 74.7064 24.5484 74.7064 21.8019C74.7064 19.0553 74.1767 16.6619 73.1173 14.6216C72.0971 12.5421 70.665 10.953 68.8209 9.8544C66.9768 8.75577 64.8384 8.20646 62.4057 8.20646ZM134.211 1.61474V42.6953H125.971V14.0331L115.436 42.6953H108.256L97.7208 14.1508V42.6953H89.4223V1.61474H99.4865L111.964 32.5135L124.205 1.61474H134.211ZM150.023 7.73563V18.506H164.737V24.8623H150.023V36.0447H166.503V42.6953H141.725V1.1439H166.503V7.73563H150.023Z" fill="white"/>
</svg>
